<?xml version="1.0" standalone="no"?>
<!DOCTYPE svg PUBLIC "-//W3C//DTD SVG 20010904//EN"
 "http://www.w3.org/TR/2001/REC-SVG-20010904/DTD/svg10.dtd">
<svg version="1.0" xmlns="http://www.w3.org/2000/svg"
 width="3000.000000pt" height="2000.000000pt" viewBox="0 0 3000.000000 2000.000000"
 preserveAspectRatio="xMidYMid meet">

<g transform="translate(0.000000,2000.000000) scale(0.100000,-0.100000)"
fill="#000000" stroke="none">
<path d="M25321 17250 c-55 -25 -140 -113 -222 -230 -35 -51 -69 -99 -75 -108
-10 -14 -14 -11 -28 23 -27 64 -104 181 -137 209 -35 29 -64 33 -73 10 -7 -19
25 -117 64 -193 l28 -57 -63 62 c-120 118 -294 204 -482 240 -120 22 -389 15
-516 -15 -197 -46 -368 -139 -521 -282 -201 -190 -356 -455 -426 -728 -27
-107 -28 -166 -7 -426 9 -115 42 -601 72 -1080 89 -1413 115 -1818 120 -1851
l5 -30 68 17 c118 31 276 19 385 -29 48 -21 48 -21 63 -187 2 -22 8 -60 13
-85 6 -29 7 100 3 355 -14 801 -7 1683 12 1703 3 2 20 -1 38 -9 52 -22 136
-16 194 14 113 57 231 233 315 467 21 61 28 74 25 45 -30 -221 -41 -725 -19
-800 19 -62 35 -79 66 -71 47 11 107 139 173 368 19 67 36 123 38 125 2 2 24
-32 51 -74 154 -250 353 -461 489 -517 54 -22 143 -21 183 3 78 48 115 174
117 398 l1 152 80 -78 c132 -128 246 -195 321 -189 37 3 39 5 37 37 -1 36 -42
100 -120 189 l-46 53 69 -8 c117 -14 399 -7 529 12 103 15 336 67 400 90 12 4
8 -2 -10 -14 -48 -35 -217 -118 -276 -136 -99 -30 -95 -26 -63 -65 50 -59 226
-210 313 -268 l84 -56 -7 -390 c-10 -624 -26 -1336 -30 -1401 -2 -37 -1 -52 4
-40 5 11 9 31 9 44 1 14 11 35 23 48 12 13 23 29 24 36 2 6 6 23 10 36 7 23 6
23 -18 7 l-25 -16 13 87 c8 49 14 94 14 101 0 17 95 59 179 78 48 12 98 15
182 12 l116 -5 17 136 c42 335 120 1034 160 1441 85 839 122 1366 114 1605 -5
154 -3 150 -132 284 -208 215 -519 445 -786 580 -224 114 -353 142 -562 122
-210 -20 -462 -79 -703 -165 -52 -19 -95 -32 -95 -30 0 2 35 46 78 96 99 118
151 189 191 259 34 61 39 94 15 103 -19 7 -11 9 -63 -14z"/>
<path d="M4985 17080 c-7 -23 15 -70 63 -129 l36 -44 -30 6 c-220 47 -261 52
-459 51 -189 0 -205 -1 -290 -27 -49 -16 -133 -49 -185 -75 -52 -26 -99 -49
-104 -51 -5 -2 1 11 13 28 13 18 24 47 25 64 1 28 -2 32 -28 35 -62 7 -107
-30 -161 -138 l-27 -54 -22 74 c-27 92 -80 193 -118 225 -53 44 -122 50 -187
15 -100 -53 -190 -209 -191 -329 0 -30 -2 -33 -22 -27 -167 49 -273 60 -284
31 -9 -22 11 -42 88 -84 l69 -38 -63 -7 c-173 -20 -331 -79 -404 -153 -116
-115 -96 -268 54 -419 54 -55 62 -66 41 -61 -59 15 -170 26 -198 21 -65 -13
-24 -39 124 -79 55 -15 101 -28 103 -30 2 -1 -14 -13 -35 -26 -21 -13 -62 -41
-90 -62 -49 -36 -53 -43 -53 -79 0 -124 142 -890 376 -2033 165 -804 213
-1040 229 -1125 44 -232 44 -233 37 350 -10 757 -9 2160 2 2305 8 113 9 118
25 98 9 -11 52 -69 95 -128 154 -208 308 -335 406 -335 134 0 210 211 210 583
l0 127 85 -168 c104 -207 189 -337 274 -423 120 -120 199 -125 260 -17 31 53
70 196 72 259 1 21 9 -3 20 -61 24 -112 58 -192 92 -214 69 -46 86 43 37 192
-10 31 -18 57 -17 58 1 1 38 -20 82 -47 221 -137 449 -231 565 -233 55 -1 76
4 134 33 79 39 182 134 241 224 21 31 40 57 43 57 2 0 1 -20 -2 -44 -8 -52 0
-92 21 -100 22 -9 90 24 151 73 l52 41 0 -27 c0 -16 4 -100 10 -188 31 -522
50 -1231 51 -1950 1 -341 5 -606 9 -590 5 19 8 23 9 11 1 -18 4 -17 31 9 16
16 28 31 25 33 -3 3 -1 10 4 16 5 6 12 27 16 46 l7 35 -23 -20 c-13 -11 -29
-27 -36 -35 -11 -13 -12 -12 -13 5 0 11 9 81 20 155 11 74 51 344 90 600 238
1591 359 2575 336 2720 l-6 38 63 -5 c48 -4 65 -2 75 10 11 13 8 18 -15 35
-15 11 -52 28 -80 38 -29 10 -53 21 -53 24 0 3 48 44 107 90 137 108 324 292
352 347 77 152 -68 159 -368 17 -63 -30 -116 -52 -118 -50 -3 2 0 13 6 24 26
49 9 102 -42 129 -27 15 -56 18 -177 16 -80 -1 -203 -8 -275 -17 -71 -8 -156
-18 -188 -22 l-57 -7 31 66 c79 169 79 301 -1 342 -44 23 -173 20 -256 -6 -91
-28 -209 -85 -316 -152 l-87 -55 -10 29 c-19 56 -85 142 -130 170 -56 36 -136
41 -146 9z"/>
<path d="M9909 16530 c-1 -5 -2 -15 -3 -22 0 -6 -7 -13 -14 -16 -8 -2 -10 3
-6 15 3 10 2 14 -3 8 -4 -6 -20 -18 -35 -28 -16 -10 -28 -25 -28 -34 0 -9 -3
-13 -7 -10 -8 8 -63 -50 -103 -108 -70 -103 -128 -251 -146 -377 -3 -27 -9
-48 -13 -48 -3 1 -33 7 -66 15 -72 18 -197 18 -245 2 -27 -9 -36 -18 -38 -40
-5 -38 27 -78 104 -133 36 -26 64 -48 62 -49 -2 -2 -43 -19 -93 -40 -332 -136
-610 -360 -672 -541 -11 -33 -14 -72 -11 -142 6 -128 37 -218 177 -509 130
-272 154 -336 155 -423 1 -112 -28 -153 -299 -430 -249 -254 -309 -337 -357
-493 -18 -60 -20 -86 -15 -200 3 -97 11 -151 27 -202 38 -122 118 -244 195
-296 19 -13 35 -27 35 -30 0 -4 -26 -16 -58 -28 -83 -30 -176 -93 -212 -143
-40 -55 -39 -110 2 -141 24 -18 41 -20 140 -19 75 1 152 10 228 26 63 13 116
23 117 22 1 -1 -13 -38 -32 -82 -75 -173 -86 -362 -29 -484 99 -208 319 -259
704 -164 57 14 137 39 177 54 72 28 72 28 90 8 16 -18 227 -128 245 -128 7 0
3 298 -8 557 l-6 131 -55 -24 c-127 -56 -309 -73 -447 -40 -382 90 -598 540
-480 1001 51 201 188 342 374 386 75 17 239 15 330 -6 41 -9 112 -34 157 -55
l81 -38 6 -88 c4 -49 8 -110 11 -136 3 -39 1 -46 -12 -41 -11 4 -14 1 -10 -13
13 -49 27 -111 30 -134 3 -25 10 111 27 560 16 389 40 871 45 914 3 21 14 51
24 65 40 57 171 344 171 376 0 2 -36 23 -81 46 -86 43 -97 55 -36 38 21 -5 41
-8 46 -4 5 3 11 1 13 -5 1 -5 19 -12 38 -14 19 -3 37 -6 40 -7 3 -1 20 -2 37
-3 18 -1 33 -5 32 -11 0 -5 -8 -9 -17 -7 -10 2 -13 -1 -7 -5 6 -4 11 -15 13
-23 2 -8 8 -17 13 -18 5 -2 6 -9 3 -14 -5 -7 -2 -8 5 -3 9 5 10 10 2 18 -13
13 -15 30 -2 22 5 -3 13 0 17 6 4 8 3 9 -4 5 -16 -10 -15 7 1 23 6 7 8 12 2
11 -5 -2 -13 -1 -17 0 -5 1 -17 3 -29 4 -23 1 -52 62 -94 196 -13 41 -32 102
-43 135 -45 133 -72 225 -72 243 0 10 -5 23 -10 28 -6 6 -12 26 -14 45 -4 34
-29 138 -46 194 -5 17 -14 64 -21 105 -6 41 -19 112 -30 157 -13 58 -19 120
-19 212 0 78 -4 131 -10 133 -7 2 -7 13 0 33 5 17 13 71 17 120 7 83 10 90 30
90 11 0 25 3 29 8 9 9 16 47 9 47 -3 0 -6 -4 -6 -10z"/>
<path d="M18505 16523 c-749 -48 -1371 -259 -1717 -582 l-75 -70 -64 65 c-104
106 -178 138 -192 84 -12 -47 36 -167 114 -282 22 -31 39 -59 39 -61 0 -3 -26
3 -58 13 -128 40 -202 38 -202 -4 0 -48 87 -86 194 -86 l43 0 -5 -77 c-11
-205 121 -859 383 -1898 131 -520 222 -871 241 -935 l14 -45 -6 55 c-3 30 -12
120 -20 200 -21 209 -29 706 -15 932 l12 186 45 79 c101 175 161 326 171 428
l5 61 -83 32 c-74 28 -239 115 -239 127 0 2 26 -5 58 -16 307 -108 613 -86
1067 77 297 106 344 117 485 117 106 0 139 -4 215 -27 117 -34 288 -120 395
-197 l85 -61 32 37 c41 48 103 168 139 270 l28 80 13 -98 c38 -280 153 -376
340 -282 39 19 91 53 116 75 25 22 48 40 51 40 17 0 50 -206 71 -450 25 -299
41 -697 56 -1445 1 -44 4 -67 6 -52 3 16 12 37 21 48 18 21 45 109 33 109 -4
0 -12 -5 -19 -12 -15 -15 -15 -11 3 92 8 47 19 119 25 160 5 41 41 277 80 525
141 897 244 1653 257 1885 6 111 5 117 -21 167 -14 29 -46 77 -72 108 -25 31
-44 58 -42 59 2 2 38 27 81 56 80 55 121 96 111 111 -3 5 -22 9 -43 9 -34 0
-70 -18 -147 -75 -19 -14 -24 -12 -80 31 -297 232 -797 392 -1354 434 -123 9
-453 11 -575 3z"/>
<path d="M9913 16440 c0 -25 2 -35 4 -22 2 12 2 32 0 45 -2 12 -4 2 -4 -23z"/>
<path d="M10250 14693 c0 -6 7 -16 16 -24 8 -7 13 -21 11 -31 -3 -10 -1 -16 4
-12 14 8 11 24 -11 51 -11 14 -20 21 -20 16z"/>
<path d="M10240 14665 c13 -14 26 -25 28 -25 3 0 -5 11 -18 25 -13 14 -26 25
-28 25 -3 0 5 -11 18 -25z"/>
<path d="M10290 14586 c0 -2 8 -10 18 -17 15 -13 16 -12 3 4 -13 16 -21 21
-21 13z"/>
<path d="M19017 14363 c-35 -70 -127 -366 -127 -409 0 -7 30 -14 73 -17 120
-10 251 -58 355 -129 24 -17 45 -28 47 -26 8 9 55 181 66 240 11 65 10 70 -14
110 -60 101 -287 278 -356 278 -15 0 -28 -14 -44 -47z"/>
<path d="M18145 14354 c-41 -21 -101 -71 -167 -140 -130 -135 -150 -177 -129
-267 10 -42 77 -224 86 -235 2 -2 34 20 72 49 103 79 195 118 365 154 l27 5
-30 83 c-81 221 -154 367 -182 367 -7 0 -25 -7 -42 -16z"/>
<path d="M11325 14120 c2 -36 9 -82 15 -103 6 -22 9 -41 6 -44 -3 -3 1 -17 8
-32 7 -14 14 -43 14 -64 1 -21 6 -56 12 -78 6 -22 13 -65 15 -97 2 -31 5 -58
6 -59 1 -2 3 -12 4 -23 1 -11 4 -21 5 -22 5 -6 9 -85 16 -348 7 -289 -3 -506
-32 -650 -15 -75 -70 -200 -88 -200 -5 0 -6 -3 -3 -6 4 -4 -15 -18 -41 -33
-41 -22 -59 -25 -132 -24 -108 1 -119 2 -142 14 -10 5 -18 7 -18 4 0 -13 108
-54 168 -65 101 -18 163 -1 227 64 45 45 54 61 73 131 33 125 46 308 39 574
-8 313 -45 617 -118 966 -35 166 -41 182 -34 95z"/>
<path d="M18682 14048 c-122 -582 -160 -1182 -97 -1517 38 -198 150 -286 322
-251 69 14 153 48 153 62 0 6 -7 4 -17 -3 -11 -10 -47 -14 -122 -14 -100 0
-108 2 -148 28 -55 38 -89 91 -113 179 -23 87 -28 114 -35 193 -3 33 -8 84
-11 113 -7 70 -7 519 1 531 3 5 1 13 -5 16 -8 5 -7 11 1 21 6 8 9 23 6 34 -3
11 -1 35 3 53 5 17 11 73 14 122 4 50 13 126 22 170 9 44 17 95 18 113 0 17 4
32 7 32 3 0 5 15 5 33 -1 17 2 34 6 38 8 5 24 149 16 149 -3 0 -14 -46 -26
-102z"/>
<path d="M4245 14033 c-44 -23 -143 -104 -202 -165 -67 -69 -103 -124 -103
-158 0 -34 32 -158 63 -238 l23 -63 51 40 c92 74 183 109 380 150 l32 6 -48
145 c-75 224 -113 301 -150 300 -9 -1 -29 -8 -46 -17z"/>
<path d="M5127 14033 c-23 -27 -54 -101 -112 -273 l-53 -155 32 -6 c144 -30
195 -45 263 -78 43 -21 98 -55 123 -74 l45 -36 18 46 c30 78 67 213 67 248 0
18 -11 49 -26 71 -71 107 -270 274 -327 274 -8 0 -21 -8 -30 -17z"/>
<path d="M24573 14035 c-56 -24 -124 -76 -211 -159 -101 -97 -116 -123 -107
-179 8 -47 70 -226 83 -239 4 -4 24 4 43 18 89 67 244 126 370 140 32 4 59 8
59 9 0 2 -15 47 -34 102 -70 201 -131 324 -159 323 -7 -1 -27 -7 -44 -15z"/>
<path d="M25457 14018 c-14 -18 -35 -55 -47 -82 -28 -67 -110 -293 -110 -306
0 -5 11 -10 25 -10 99 0 285 -64 380 -131 32 -22 58 -39 60 -37 25 29 85 216
85 264 0 19 -7 48 -15 63 -33 64 -262 251 -326 266 -22 6 -31 1 -52 -27z"/>
<path d="M25088 13690 c-121 -436 -172 -766 -171 -1110 0 -314 27 -401 144
-464 51 -26 59 -28 144 -23 91 6 165 23 165 39 0 5 -4 7 -9 3 -5 -3 -48 -6
-96 -6 -68 0 -94 4 -130 21 -85 41 -136 138 -152 293 -12 107 -7 463 7 612 15
156 15 155 23 180 3 11 8 43 12 70 8 66 33 191 47 235 6 19 13 44 14 55 6 37
10 50 18 63 4 7 5 16 2 19 -3 3 2 19 10 35 9 16 14 47 12 71 -3 37 -7 26 -40
-93z"/>
<path d="M4792 13799 c-101 -403 -146 -627 -179 -889 -23 -187 -26 -645 -4
-730 37 -146 111 -210 243 -210 66 0 178 26 178 42 0 5 -10 6 -22 2 -12 -4
-52 -6 -88 -5 -150 3 -226 86 -255 277 -24 159 -18 631 11 834 2 19 7 55 10
80 3 25 9 57 14 73 6 17 5 27 -1 27 -6 0 -7 6 -2 13 4 6 8 17 9 22 16 99 58
276 74 304 6 12 7 21 2 21 -6 0 -3 19 5 42 8 23 12 55 10 72 -2 17 -5 28 -5
25z"/>
<path d="M10944 13322 c-42 -27 -69 -63 -96 -130 -18 -47 -22 -77 -22 -167 -1
-156 5 -165 125 -189 l93 -19 23 29 c43 54 66 131 67 229 1 108 -16 172 -58
220 -39 45 -87 55 -132 27z"/>
<path d="M19004 13320 c-117 -47 -140 -334 -38 -481 22 -32 31 -38 48 -33 12
4 54 15 95 24 72 16 75 17 89 55 20 56 20 197 -1 265 -22 74 -70 144 -111 164
-38 18 -51 19 -82 6z"/>
<path d="M11669 13261 c-54 -57 -74 -125 -74 -247 1 -93 3 -105 34 -168 55
-111 126 -134 198 -64 52 50 76 125 76 238 1 164 -63 280 -154 280 -36 0 -47
-6 -80 -39z"/>
<path d="M18240 13277 c-69 -35 -116 -168 -107 -305 14 -231 177 -325 269
-155 109 200 -9 537 -162 460z"/>
<path d="M14075 13030 c-44 -15 -102 -34 -128 -43 -26 -10 -62 -17 -80 -17
-21 0 -28 -3 -19 -9 8 -5 -8 -7 -40 -5 -32 3 -46 1 -35 -4 15 -6 8 -11 -31
-20 -27 -7 -55 -12 -62 -10 -8 2 -14 -2 -15 -9 0 -6 -4 -15 -9 -20 -5 -5 -6
-2 -1 6 5 9 4 12 -3 8 -5 -4 -8 -16 -5 -27 3 -11 10 -17 16 -13 5 3 8 2 5 -3
-3 -5 2 -40 12 -79 59 -231 20 -508 -101 -712 -48 -81 -162 -193 -240 -236
-178 -99 -425 -102 -620 -9 -57 28 -59 28 -59 8 -1 -12 -18 -163 -38 -336 -21
-173 -35 -316 -31 -318 13 -6 162 48 193 70 17 12 43 33 59 46 l27 26 28 -26
c31 -28 145 -109 180 -128 29 -15 39 -6 162 136 265 307 497 677 671 1069 109
246 226 575 213 596 -4 8 -3 9 4 5 7 -4 12 -1 12 8 0 8 3 22 6 31 7 17 -15 18
-29 0 -5 -6 -7 -4 -5 4 2 8 12 15 22 17 10 1 20 5 24 8 15 15 -10 11 -83 -14z
m21 -15 c-1 -8 -5 -17 -8 -21 -5 -4 -4 16 1 34 3 9 9 -1 7 -13z"/>
<path d="M24603 13031 c-117 -74 -144 -343 -45 -455 29 -33 79 -48 116 -36
138 45 184 337 74 464 -42 47 -96 58 -145 27z"/>
<path d="M25350 13024 c-53 -46 -73 -97 -78 -204 -3 -79 0 -104 17 -150 12
-30 30 -66 41 -78 19 -23 22 -24 92 -12 40 6 83 14 95 16 35 7 56 59 61 150
11 211 -118 370 -228 278z"/>
<path d="M13888 13033 c6 -2 18 -2 25 0 6 3 1 5 -13 5 -14 0 -19 -2 -12 -5z"/>
<path d="M4289 12974 c-60 -38 -100 -130 -107 -250 -13 -226 122 -361 233
-232 85 100 97 316 24 435 -36 58 -99 78 -150 47z"/>
<path d="M5029 12975 c-59 -32 -107 -183 -93 -293 8 -65 36 -146 62 -180 l18
-23 92 17 c86 16 94 19 109 48 25 47 30 207 8 281 -38 132 -117 193 -196 150z"/>
<path d="M13623 12942 c10 -10 14 -23 10 -27 -5 -5 0 -4 9 4 9 7 14 19 11 28
-5 12 -7 12 -14 1 -7 -10 -9 -10 -9 0 0 6 -5 12 -12 12 -6 0 -4 -7 5 -18z"/>
<path d="M28231 12849 c-6 -13 -33 -80 -62 -149 -220 -537 -542 -1049 -916
-1455 -138 -151 -427 -415 -439 -402 -2 2 11 100 31 218 19 118 50 324 69 459
20 135 38 261 41 281 l5 35 -84 -4 c-105 -5 -206 16 -298 62 l-67 33 -5 -36
c-3 -20 -22 -200 -42 -401 -28 -288 -39 -370 -53 -389 -73 -103 -333 -156
-891 -181 -129 -6 -237 -13 -239 -16 -3 -3 -7 -35 -9 -72 l-4 -67 79 -30 c43
-16 87 -29 99 -27 11 1 45 -6 75 -17 46 -16 54 -22 52 -43 -1 -24 -1 -24 202
-46 292 -33 272 -28 279 -71 11 -71 17 -840 8 -1019 -5 -102 -6 -220 -1 -265
12 -125 47 -600 58 -797 19 -328 35 -963 26 -1022 l-7 -45 -71 -16 c-277 -62
-882 -91 -1425 -67 -128 5 -254 12 -280 15 -26 3 -92 10 -148 15 -55 6 -132
16 -170 23 l-69 13 -8 65 c-8 72 8 798 23 1049 15 247 39 577 54 740 10 101
11 192 5 300 -13 264 -5 1037 12 1054 3 3 96 16 207 28 l203 23 -6 27 c-6 26
-4 28 57 46 38 12 67 15 75 10 7 -6 41 3 92 24 l82 33 -3 75 -3 75 -165 7
c-437 17 -741 73 -824 151 -41 39 -36 8 -82 472 -20 204 -38 371 -39 373 -1 1
-27 -9 -58 -23 -127 -59 -290 -69 -413 -26 -32 12 -59 20 -60 18 -3 -3 41
-516 61 -722 21 -207 53 -433 66 -457 13 -24 55 -41 165 -66 75 -18 375 -71
409 -72 5 -1 -37 -19 -95 -41 -129 -49 -369 -164 -470 -226 -251 -155 -423
-329 -498 -506 -24 -55 -26 -75 -27 -182 0 -133 14 -209 72 -389 75 -233 267
-637 454 -956 l91 -155 -23 -155 c-30 -202 -32 -423 -6 -491 10 -26 25 -53 35
-62 9 -8 68 -32 130 -53 107 -35 116 -40 139 -78 14 -23 38 -57 54 -77 l28
-35 20 -335 c88 -1406 207 -2743 347 -3885 l47 -380 59 9 c78 13 125 -2 172
-53 30 -34 42 -40 75 -40 l40 0 5 53 c3 28 10 286 16 572 26 1213 98 3095 136
3559 l7 78 46 -6 c154 -22 479 -17 697 10 l51 6 7 -78 c39 -487 122 -2669 141
-3754 3 -173 8 -343 11 -377 l6 -63 39 0 c33 0 46 7 82 44 48 51 100 65 177
47 24 -5 45 -9 46 -8 4 5 97 781 129 1077 100 920 206 2197 266 3205 15 262
26 376 35 392 8 13 32 27 56 33 128 32 300 93 326 115 75 63 80 271 16 650
-48 289 -152 721 -269 1120 l-56 190 -15 243 c-9 134 -14 245 -12 246 1 1 75
50 163 108 213 142 347 250 544 443 244 238 431 465 618 745 296 446 564 1026
708 1533 l33 118 -31 20 c-40 24 -122 55 -170 64 -32 6 -38 4 -46 -16z m-1861
-2303 c-37 -20 -49 -22 -74 -13 -33 11 -31 13 35 26 76 15 87 12 39 -13z
m-2688 -1038 c-4 -87 -13 -132 -57 -288 -30 -102 -72 -255 -95 -340 -22 -85
-42 -156 -45 -158 -9 -10 -235 728 -235 770 0 16 9 33 23 43 47 33 231 72 352
74 l61 1 -4 -102z"/>
<path d="M11210 12775 c0 -16 27 -32 37 -21 7 7 -16 36 -28 36 -5 0 -9 -7 -9
-15z"/>
<path d="M18802 12768 c-7 -7 -12 -16 -12 -20 0 -12 28 -10 36 3 10 17 -10 31
-24 17z"/>
<path d="M1597 12635 c-67 -18 -157 -64 -157 -79 0 -22 77 -275 120 -396 327
-918 841 -1677 1485 -2195 77 -62 296 -214 417 -290 25 -16 35 -395 14 -525
-68 -425 -210 -1479 -222 -1651 l-7 -96 30 -21 c18 -13 34 -37 42 -64 18 -60
56 -133 106 -204 l44 -61 16 -254 c67 -1058 143 -2015 230 -2869 35 -345 55
-518 121 -1045 19 -154 36 -292 37 -308 2 -25 -4 -30 -58 -52 -64 -27 -88 -49
-80 -75 4 -13 -12 -25 -67 -51 -67 -31 -82 -34 -187 -37 l-113 -4 5 -45 c5
-50 64 -176 100 -214 46 -50 313 -97 451 -79 39 5 109 20 156 34 97 30 183 53
223 61 17 3 27 12 27 23 1 9 -23 87 -52 173 l-52 155 12 530 c33 1397 99 3096
139 3568 l6 76 66 -7 c103 -12 506 -8 605 6 49 7 92 8 96 4 26 -28 104 -1977
151 -3755 l11 -418 -58 -171 c-62 -183 -62 -188 -4 -189 14 0 82 -18 151 -39
165 -51 249 -63 369 -50 133 13 259 45 288 72 33 31 77 112 96 176 27 93 31
89 -96 93 -104 3 -119 6 -185 37 -59 28 -73 38 -73 57 0 29 -37 58 -95 75 -25
7 -45 19 -45 25 0 6 9 76 19 155 128 943 274 2546 365 4009 l25 385 55 83 c30
45 63 105 73 133 12 35 27 55 46 65 34 18 34 23 2 309 -14 121 -25 229 -25
240 0 14 35 48 111 109 365 291 739 754 757 936 4 43 -2 59 -80 211 -184 357
-565 943 -656 1008 -44 31 -162 88 -253 122 -106 39 -223 60 -519 94 -294 33
-282 30 -278 58 3 18 -6 25 -57 43 -62 22 -84 22 -65 -1 14 -16 -23 -113 -68
-177 -162 -233 -468 -260 -655 -58 -71 77 -150 240 -115 240 8 0 9 3 2 10 -6
6 -31 3 -69 -9 -55 -16 -60 -20 -57 -44 3 -32 20 -29 -273 -62 -126 -14 -273
-33 -327 -42 l-96 -16 -69 38 c-178 100 -367 237 -553 401 -493 438 -896 1028
-1185 1737 -26 64 -53 117 -59 116 -6 0 -33 -7 -59 -14z m3631 -2356 c-69
-123 -186 -222 -308 -260 -90 -29 -231 -28 -322 1 -118 36 -236 135 -302 252
-24 42 -10 28 39 -41 182 -253 572 -283 796 -60 31 32 69 78 84 103 33 57 45
61 13 5z m-944 -195 l29 -35 -31 -94 c-38 -111 -39 -136 -12 -380 24 -218 36
-443 26 -509 -5 -34 -13 -50 -25 -53 -11 -3 -26 -29 -41 -69 -12 -35 -25 -64
-29 -64 -3 0 -16 8 -29 18 l-22 17 35 53 c20 29 34 56 31 61 -3 4 1 57 9 117
18 137 18 222 0 349 -23 161 -18 474 10 603 7 29 14 27 49 -14z m1056 9 c0 -5
7 -62 15 -128 19 -155 19 -306 0 -447 -23 -173 -24 -240 -9 -366 8 -64 13
-123 11 -131 -2 -9 12 -40 30 -69 18 -29 33 -56 33 -61 0 -4 -11 -13 -25 -19
-23 -11 -26 -9 -40 25 -9 20 -18 48 -22 61 -3 14 -14 27 -24 29 -10 3 -22 15
-26 27 -14 42 -4 285 21 534 26 244 26 256 10 319 -9 36 -25 86 -36 110 l-19
44 31 39 c29 37 50 50 50 33z m792 -642 c107 -72 428 -344 428 -362 0 -4 -11
-10 -25 -13 -34 -9 -32 -31 5 -46 17 -7 30 -16 30 -20 0 -14 -122 -165 -250
-310 -157 -177 -178 -198 -184 -179 -12 39 -106 743 -106 795 0 85 11 184 21
184 4 0 40 -22 81 -49z"/>
<path d="M25157 12549 c-9 -6 -17 -14 -17 -19 0 -16 30 -11 37 5 8 21 1 25
-20 14z"/>
<path d="M4815 12450 c-3 -5 -4 -14 0 -20 8 -13 35 -1 35 16 0 16 -26 19 -35
4z"/>
<path d="M20210 12326 c0 -8 5 -18 10 -21 6 -3 10 1 10 9 0 8 -4 18 -10 21 -5
3 -10 -1 -10 -9z"/>
<path d="M14227 12157 c-62 -179 -176 -450 -267 -633 l-96 -192 51 15 c143 40
265 135 314 245 35 78 49 139 57 261 6 90 -11 349 -25 374 -3 7 -19 -25 -34
-70z"/>
<path d="M24364 12164 c-8 -30 0 -196 10 -212 4 -7 20 -7 48 0 107 25 256 -20
338 -102 46 -46 90 -130 90 -172 l0 -28 58 22 c76 28 127 61 185 120 47 47
101 143 91 160 -3 4 -18 8 -34 8 -43 0 -230 37 -350 70 -130 35 -230 71 -339
121 -46 22 -85 39 -87 39 -2 0 -7 -12 -10 -26z"/>
<path d="M26536 12153 c-4 -9 -2 -21 4 -27 7 -7 10 -2 10 17 0 31 -5 34 -14
10z"/>
<path d="M11117 12086 c24 -108 93 -277 134 -330 l21 -27 28 44 c36 57 93 103
153 123 64 21 168 16 224 -12 48 -24 47 -25 58 61 3 28 9 62 11 77 l5 27 -145
-6 c-160 -7 -276 5 -411 41 l-82 22 4 -20z"/>
<path d="M6176 12005 c-10 -27 -7 -52 7 -64 12 -9 13 -3 10 31 -5 49 -8 55
-17 33z"/>
<path d="M18235 10825 c-5 -2 -26 -6 -46 -9 l-36 -6 9 -53 c15 -84 65 -199
117 -273 76 -109 167 -171 296 -204 262 -67 497 42 638 295 55 100 55 97 -8
128 -53 26 -98 38 -66 18 32 -20 -77 -187 -164 -253 -82 -62 -145 -82 -255
-82 -187 1 -303 74 -393 249 -36 70 -60 164 -46 182 9 10 6 13 -12 12 -13 0
-28 -2 -34 -4z"/>
<path d="M11855 10542 c-46 -88 -144 -186 -229 -228 -153 -75 -327 -78 -476
-8 -58 27 -92 53 -158 120 -67 68 -77 76 -51 38 103 -144 271 -234 434 -234
177 1 345 84 435 215 34 50 84 144 79 150 -3 2 -18 -22 -34 -53z"/>
<path d="M25404 10339 c-16 -18 -55 -49 -87 -70 -200 -131 -472 -111 -657 47
-49 43 -51 44 -20 10 150 -164 422 -207 632 -100 41 21 183 143 167 144 -3 0
-18 -14 -35 -31z"/>
<path d="M13165 7714 c-440 -211 -1462 -388 -2240 -388 -273 0 -392 8 -535 38
-36 8 -67 12 -69 10 -6 -6 41 -78 100 -150 l57 -71 6 -159 c3 -87 8 -249 11
-359 3 -110 8 -243 10 -295 3 -52 7 -169 10 -260 3 -91 8 -205 10 -255 3 -49
7 -153 10 -230 15 -367 65 -1252 90 -1600 32 -429 73 -917 104 -1240 10 -104
17 -193 15 -196 -2 -4 -16 -10 -31 -13 -16 -4 -47 -16 -71 -28 -37 -17 -43
-24 -40 -47 3 -24 -3 -29 -77 -59 -76 -31 -85 -32 -190 -30 l-110 3 2 -47 c3
-56 32 -132 76 -199 34 -53 55 -63 191 -94 187 -43 298 -39 507 20 68 19 139
35 157 35 20 0 35 6 38 15 3 8 -17 90 -45 182 l-52 168 11 195 c99 1774 224
3558 286 4083 l7 57 166 0 c91 0 209 5 261 10 228 24 487 79 637 135 37 14 70
22 73 18 24 -26 381 -586 578 -903 424 -685 919 -1503 1526 -2523 l177 -298
24 -127 c47 -247 43 -235 73 -228 229 48 418 109 494 158 108 69 245 195 259
236 25 75 -6 292 -42 292 -6 0 -43 -20 -83 -44 -81 -51 -124 -64 -216 -67 -50
-2 -65 0 -65 11 0 25 -50 35 -115 24 l-59 -10 -42 106 c-408 1023 -1015 2386
-1689 3789 l-122 255 12 58 c7 32 11 60 9 62 -2 2 -44 -16 -94 -40z"/>
<path d="M16880 7723 c0 -8 8 -43 17 -78 l17 -64 -282 -708 c-299 -751 -475
-1203 -485 -1241 -33 -137 339 -603 1149 -1438 254 -262 262 -271 243 -288
-25 -21 -15 -42 47 -106 l44 -45 -47 -83 c-26 -46 -58 -95 -71 -109 -19 -21
-20 -24 -5 -19 49 19 124 28 207 24 75 -3 103 -9 149 -32 31 -15 57 -34 57
-42 0 -25 -78 -100 -138 -132 -32 -17 -98 -44 -147 -61 -66 -22 -85 -32 -71
-37 46 -18 244 55 332 122 47 36 100 149 160 341 40 130 45 154 34 168 -8 9
-54 43 -103 76 -50 32 -100 74 -113 92 -53 79 -604 963 -728 1171 -184 306
-182 302 -167 369 23 102 184 409 434 827 97 161 293 479 302 488 2 2 57 -10
122 -27 226 -59 492 -91 749 -91 l151 0 7 -57 c30 -278 116 -1739 156 -2668 5
-132 12 -285 15 -340 10 -192 44 -1081 46 -1180 1 -95 -1 -107 -51 -258 -28
-88 -49 -165 -46 -173 3 -8 16 -14 30 -14 13 0 64 -12 112 -26 228 -67 293
-77 424 -63 130 13 275 51 306 80 35 33 30 39 -23 22 -199 -60 -401 -71 -545
-27 -15 4 -14 11 13 54 64 104 204 199 338 230 l54 13 -54 26 c-44 21 -53 30
-51 48 4 25 -35 54 -98 74 -19 6 -38 14 -42 18 -4 4 10 169 32 366 117 1065
222 2466 289 3867 l18 376 40 49 c46 55 125 174 119 180 -2 2 -48 -5 -102 -16
-159 -32 -302 -43 -584 -42 -779 1 -1753 162 -2174 360 -66 30 -86 36 -86 24z"/>
<path d="M25557 2380 c-33 -78 -86 -245 -80 -251 4 -4 28 -11 53 -17 25 -5 97
-25 160 -45 157 -48 248 -60 363 -47 143 16 268 48 296 76 14 13 23 25 20 28
-2 2 -46 -7 -97 -20 -181 -46 -342 -49 -480 -9 -61 18 -60 24 7 90 23 21 41
42 41 45 0 4 -16 15 -35 26 -19 10 -35 22 -35 27 0 4 -4 6 -9 3 -13 -8 -83 29
-74 39 4 4 3 5 -3 2 -11 -6 -94 28 -94 39 0 3 5 2 12 -2 7 -4 8 -3 4 5 -6 9
-11 9 -21 1 -10 -8 -14 -7 -18 7 -3 15 -5 15 -10 3z"/>
<path d="M24501 2373 c-1 -7 -7 -13 -15 -13 -8 0 -46 -16 -85 -36 -39 -19 -76
-32 -82 -28 -7 4 -9 3 -6 -3 5 -8 -58 -45 -85 -49 -4 -1 -12 -2 -18 -3 -5 0
14 -22 41 -48 78 -73 79 -80 17 -98 -138 -40 -299 -37 -480 9 -51 13 -95 22
-97 20 -3 -3 6 -15 20 -28 28 -28 153 -60 296 -76 115 -13 206 -1 363 47 63
20 135 40 160 45 25 6 48 13 53 17 4 4 -13 63 -37 132 -25 68 -45 118 -45 112z"/>
</g>
</svg>
